<svg xmlns="http://www.w3.org/2000/svg" id="a" viewBox="0 0 128 128"><defs><style>.b,.c,.d{stroke-width:6px}.b,.c,.d,.e,.f,.g{stroke:#000;stroke-miterlimit:10}.b,.c,.e,.f,.g{stroke-linecap:round}.c,.d,.e,.f,.g{fill:none}.e{stroke-width:4px}.f{stroke-width:8px}.g{stroke-width:3px}</style></defs><path d="M76.91,33.73c-4.38-1-11.14-2.25-19.89-1.5" class="f"/><path d="M39.67,41.18c-5.35,3.45-8.32,9.99-9.75,12.72-2.5,4.99-1.07,6.66-4.28,14.03-2.02,4.52-3.33,5.71-3.81,9.51-.24,1.66-.83,6.42,1.78,8.92,2.26,2.14,5.59,1.78,7.85,1.78,9.04,0,12.84,6.3,23.07,11.65,5.83,3.09,16.53,8.68,28.18,6.18,12.49-2.62,19.26-13.08,25.09-21.88,0,0-.82-3.75-1.06-5.89-.59-4.28-3.1-14.56-4.29-16.59-1.31-2.14-2.62-2.02-3.33-3.92-1.07-2.62,.83-3.81-.24-6.06-.95-2.02-2.73-1.9-3.81-4.28-.59-1.31-.48-2.26-.48-2.85-.36-4.52-10.11-8.8-18.31-10.82" class="f"/><path d="M47.13,45.87c0-3.22,5.38-5.26,7.76-5.26,3,.13,11.01,1.38,11.01,1.38,0,0-.75,4.5-6.38,7.26-1.88,.88-4.13,.63-8.13,.38-1.75,0-4.26-.53-4.26-3.75Z" class="d"/><path d="M96.18,43.99c-1.63-1-3.75-3.13-7.01-3.63-1-.13-9.38,1.5-9.38,1.5,0,0,2.75,4.75,5.63,6.01,2.13,.88,10.26-.63,11.39-.75" class="d"/><path d="M99.12,57.94c-4.64-.95-16.77-1.9-25.8,.12-11.06,2.38-18.67,7.85-22.59,11.3-5.23,4.52-3.57,2.22-5.59,5.55" class="c"/><line x1="96.15" x2="102.57" y1="57.35" y2="61.87" class="e"/><path d="M21.47,82.2c-.48,1.31-4.99,9.27-7.37,11.42-3.57,3.21-8.92,1.66-8.92,3.81s1.43,1.9,2.62,2.97c6.9,5.95,17.25,6.45,24.39,6.21,7.02-.24,16.4,3.45,28.53,11.41" class="f"/><path d="M107.44,85.41c1.9,2.26,9.51,7.13,12.84,7.37,1.9,.12,3.21-.48,3.33-.12,.48,.95-6.02,8.95-13.52,13.94-4.16,2.73-10.05,6.06-16.59,11.41" class="f"/><path d="M119.52,41.03c-1,.56-1.87,.7-2.88,.56-.8-.14-1.34-.56-1.87-1.05-1.14-.98-2.21-2.04-3.21-3.45-1.47-1.97-2.34-4.92-1.27-7.38,.67-1.69,2.27-2.81,2.94-4.22,.67-1.55-.07-4.01-1.4-4.85,0-.07-.67,.28-1.34,.63-2.14,1.05-4.75,1.2-6.96,.77-3.61-.63-9.56-4.01-7.29-8.65,.74-1.2-1.34-2.39-2.27-2.81-3.54-1.69-10.44,1.73-11.17,0s4.88-2.53,7.69-2.6c3.41-.07,9.97,1.62,8.23,6.54q-.2,.49-.13,.77c.13,.42,.4,.77,.87,1.13,2.14,1.69,5.42,2.18,7.89,1.55,.74-.21,1.61-.7,2.27-1.05,.8-.49,2.41-.84,3.34-.49,4.21,1.34,6.15,6.89,4.62,11.04-.54,1.55-1.87,2.81-2.61,3.87-.27,.35-.27,.49-.27,.7,.2,2.18,2.41,3.73,3.95,5.13,.74,1.13,.94,2.39,.87,3.87h0Z" class="b"/><path d="M86.28,56.87s4.28-5.95,12.25-8.32,11.53-3.09,11.53-3.09c0,0,1.43-.24,2.14,1.31,.95,2.26,.24,2.97,.24,2.97,0,0-3.69,5.23-11.06,7.25s-15.1-.12-15.1-.12Z"/><path d="M68.53,51.12s2.13-2.63,3.38-3.13c1.25-.63,1.38,1,2.25,.88,.88-.13,.75-1.38,1.63-1.38s3.5,2.5,3.5,2.5" class="g"/><path d="M30.69,87.66c-2.45-3.89-2.8-7.33-3.02-9.17-.35-6.01,2.29-10.64,3.97-13.49,1.13-1.99,2.21-3.44,3.1-4.43" class="f"/><path d="M59.29,101.7c-1.19-.71-5.11-3.21-7.02-8.32-1.78-4.76-.83-8.92-.48-10.23" class="f"/><path d="M65.59,78.21c1.31-1.55,4.28-4.76,9.16-6.66,5.47-2.14,10.23-1.55,12.25-1.19" class="f"/></svg>